<svg width="462" height="136" viewBox="0 0 462 136" fill="none" xmlns="http://www.w3.org/2000/svg">
<path d="M260 46V82.5" stroke="black" stroke-width="5"/>
<path d="M220 32V97.5" stroke="black" stroke-width="5"/>
<path d="M19 32V97.5" stroke="black" stroke-width="5"/>
<path d="M92 98V32.5" stroke="black" stroke-width="5"/>
<path d="M301 98V32.5" stroke="black" stroke-width="5"/>
<path d="M180 98V32.5" stroke="black" stroke-width="5"/>
<path d="M389 98V32.5" stroke="black" stroke-width="5"/>
<path d="M28 6V124" stroke="black" stroke-width="5"/>
<path d="M229 6V124" stroke="black" stroke-width="5"/>
<path d="M101 124V6" stroke="black" stroke-width="5"/>
<path d="M310 124V6" stroke="black" stroke-width="5"/>
<path d="M171 124V6" stroke="black" stroke-width="5"/>
<path d="M380 124V6" stroke="black" stroke-width="5"/>
<path d="M38 10V120" stroke="black" stroke-width="5"/>
<path d="M239 10V120" stroke="black" stroke-width="5"/>
<path d="M111 120V10" stroke="black" stroke-width="5"/>
<path d="M142 116V6" stroke="black" stroke-width="5"/>
<path d="M320 120V10" stroke="black" stroke-width="5"/>
<path d="M161 120V10" stroke="black" stroke-width="5"/>
<path d="M370 120V10" stroke="black" stroke-width="5"/>
<path d="M48 10V120" stroke="black" stroke-width="5"/>
<path d="M249 10V120" stroke="black" stroke-width="5"/>
<path d="M121 120V10" stroke="black" stroke-width="5"/>
<path d="M330 120V10" stroke="black" stroke-width="5"/>
<path d="M151 120V10" stroke="black" stroke-width="5"/>
<path d="M360 120V10" stroke="black" stroke-width="5"/>
<path d="M57 47V83.5" stroke="black" stroke-width="5"/>
<path d="M11 47V83.5" stroke="black" stroke-width="5"/>
<path d="M84 83V46.5" stroke="black" stroke-width="5"/>
<path d="M293 83V46.5" stroke="black" stroke-width="5"/>
<path d="M188 83V46.5" stroke="black" stroke-width="5"/>
<path d="M397 83V46.5" stroke="black" stroke-width="5"/>
<path d="M3 54V76" stroke="black" stroke-width="5"/>
<path d="M212 47V83.5" stroke="black" stroke-width="5"/>
<path d="M204 54V76" stroke="black" stroke-width="5"/>
<path d="M76 76V54" stroke="black" stroke-width="5"/>
<path d="M281 75V53" stroke="black" stroke-width="5"/>
<path d="M270 76V54" stroke="black" stroke-width="5"/>
<path d="M196 76V54" stroke="black" stroke-width="5"/>
<path d="M435 102V36.5" stroke="black" stroke-width="5"/>
<path d="M426 128V10" stroke="black" stroke-width="5"/>
<path d="M443 87V50.5" stroke="black" stroke-width="5"/>
<path d="M459 58V80" stroke="black" stroke-width="5"/>
<path d="M451 80V58" stroke="black" stroke-width="5"/>
<path d="M405 76V54" stroke="black" stroke-width="5"/>
<path d="M67 0V130" stroke="black" stroke-width="5"/>
<path d="M415 6V136" stroke="black" stroke-width="5"/>
<path d="M132 130V0" stroke="black" stroke-width="5"/>
<path d="M341 130V0" stroke="black" stroke-width="5"/>
<path d="M397 130V0" stroke="black" stroke-width="5"/>
<path d="M349 130V0" stroke="black" stroke-width="5"/>
</svg>
